<mxfile host="app.diagrams.net" modified="2023-01-25T20:39:23.034Z" agent="5.0 (Windows NT 10.0; Win64; x64) AppleWebKit/537.36 (KHTML, like Gecko) Chrome/109.0.0.0 Safari/537.36" etag="LK6ofteukePbX-W5SRN2" version="20.8.11" type="github">
  <diagram name="Page-1" id="G0s8e2J9FFWC_XXX9HWB">
    <mxGraphModel dx="1434" dy="796" grid="1" gridSize="10" guides="1" tooltips="1" connect="1" arrows="1" fold="1" page="1" pageScale="1" pageWidth="850" pageHeight="1100" math="0" shadow="0">
      <root>
        <mxCell id="0" />
        <mxCell id="1" parent="0" />
        <mxCell id="EYh8BJ2n_GDFAuwJNTOS-1" value="Runnable" style="swimlane;fontStyle=1;align=center;verticalAlign=top;childLayout=stackLayout;horizontal=1;startSize=26;horizontalStack=0;resizeParent=1;resizeParentMax=0;resizeLast=0;collapsible=1;marginBottom=0;" parent="1" vertex="1">
          <mxGeometry x="320" y="260" width="160" height="60" as="geometry" />
        </mxCell>
        <mxCell id="EYh8BJ2n_GDFAuwJNTOS-3" value="" style="line;strokeWidth=1;fillColor=none;align=left;verticalAlign=middle;spacingTop=-1;spacingLeft=3;spacingRight=3;rotatable=0;labelPosition=right;points=[];portConstraint=eastwest;strokeColor=inherit;" parent="EYh8BJ2n_GDFAuwJNTOS-1" vertex="1">
          <mxGeometry y="26" width="160" height="8" as="geometry" />
        </mxCell>
        <mxCell id="EYh8BJ2n_GDFAuwJNTOS-4" value="+ run() : void" style="text;strokeColor=none;fillColor=none;align=left;verticalAlign=top;spacingLeft=4;spacingRight=4;overflow=hidden;rotatable=0;points=[[0,0.5],[1,0.5]];portConstraint=eastwest;" parent="EYh8BJ2n_GDFAuwJNTOS-1" vertex="1">
          <mxGeometry y="34" width="160" height="26" as="geometry" />
        </mxCell>
        <mxCell id="EYh8BJ2n_GDFAuwJNTOS-5" value="Agent" style="swimlane;fontStyle=1;align=center;verticalAlign=top;childLayout=stackLayout;horizontal=1;startSize=26;horizontalStack=0;resizeParent=1;resizeParentMax=0;resizeLast=0;collapsible=1;marginBottom=0;" parent="1" vertex="1">
          <mxGeometry x="225" y="440" width="160" height="100" as="geometry" />
        </mxCell>
        <mxCell id="EYh8BJ2n_GDFAuwJNTOS-6" value="- table : Table" style="text;strokeColor=none;fillColor=none;align=left;verticalAlign=top;spacingLeft=4;spacingRight=4;overflow=hidden;rotatable=0;points=[[0,0.5],[1,0.5]];portConstraint=eastwest;" parent="EYh8BJ2n_GDFAuwJNTOS-5" vertex="1">
          <mxGeometry y="26" width="160" height="24" as="geometry" />
        </mxCell>
        <mxCell id="EYh8BJ2n_GDFAuwJNTOS-7" value="" style="line;strokeWidth=1;fillColor=none;align=left;verticalAlign=middle;spacingTop=-1;spacingLeft=3;spacingRight=3;rotatable=0;labelPosition=right;points=[];portConstraint=eastwest;strokeColor=inherit;" parent="EYh8BJ2n_GDFAuwJNTOS-5" vertex="1">
          <mxGeometry y="50" width="160" height="8" as="geometry" />
        </mxCell>
        <mxCell id="EYh8BJ2n_GDFAuwJNTOS-8" value="+ Agent (table : Table)&#xa;+ run() : void" style="text;strokeColor=none;fillColor=none;align=left;verticalAlign=top;spacingLeft=4;spacingRight=4;overflow=hidden;rotatable=0;points=[[0,0.5],[1,0.5]];portConstraint=eastwest;" parent="EYh8BJ2n_GDFAuwJNTOS-5" vertex="1">
          <mxGeometry y="58" width="160" height="42" as="geometry" />
        </mxCell>
        <mxCell id="EYh8BJ2n_GDFAuwJNTOS-9" value="Table" style="swimlane;fontStyle=1;align=center;verticalAlign=top;childLayout=stackLayout;horizontal=1;startSize=26;horizontalStack=0;resizeParent=1;resizeParentMax=0;resizeLast=0;collapsible=1;marginBottom=0;" parent="1" vertex="1">
          <mxGeometry x="250" y="720" width="300" height="150" as="geometry" />
        </mxCell>
        <mxCell id="EYh8BJ2n_GDFAuwJNTOS-10" value="- empty : boolean&#xa;- ingredients : ArrayList&lt;Integer&gt;&#xa;- totalSandwhiches : int" style="text;strokeColor=none;fillColor=none;align=left;verticalAlign=top;spacingLeft=4;spacingRight=4;overflow=hidden;rotatable=0;points=[[0,0.5],[1,0.5]];portConstraint=eastwest;" parent="EYh8BJ2n_GDFAuwJNTOS-9" vertex="1">
          <mxGeometry y="26" width="300" height="54" as="geometry" />
        </mxCell>
        <mxCell id="EYh8BJ2n_GDFAuwJNTOS-11" value="" style="line;strokeWidth=1;fillColor=none;align=left;verticalAlign=middle;spacingTop=-1;spacingLeft=3;spacingRight=3;rotatable=0;labelPosition=right;points=[];portConstraint=eastwest;strokeColor=inherit;" parent="EYh8BJ2n_GDFAuwJNTOS-9" vertex="1">
          <mxGeometry y="80" width="300" height="8" as="geometry" />
        </mxCell>
        <mxCell id="EYh8BJ2n_GDFAuwJNTOS-12" value="+ get(ingredient : int) : ArrayList&lt;Integer&gt;&#xa;+ put(firstIngredient : int, secondIngredient : int) : void&#xa;- isRightIngredient(ingredient : int) : boolean" style="text;strokeColor=none;fillColor=none;align=left;verticalAlign=top;spacingLeft=4;spacingRight=4;overflow=hidden;rotatable=0;points=[[0,0.5],[1,0.5]];portConstraint=eastwest;" parent="EYh8BJ2n_GDFAuwJNTOS-9" vertex="1">
          <mxGeometry y="88" width="300" height="62" as="geometry" />
        </mxCell>
        <mxCell id="EYh8BJ2n_GDFAuwJNTOS-13" value="Chef" style="swimlane;fontStyle=1;align=center;verticalAlign=top;childLayout=stackLayout;horizontal=1;startSize=26;horizontalStack=0;resizeParent=1;resizeParentMax=0;resizeLast=0;collapsible=1;marginBottom=0;" parent="1" vertex="1">
          <mxGeometry x="415" y="440" width="210" height="110" as="geometry" />
        </mxCell>
        <mxCell id="EYh8BJ2n_GDFAuwJNTOS-14" value="- ingredient : int&#xa;- table : Table" style="text;strokeColor=none;fillColor=none;align=left;verticalAlign=top;spacingLeft=4;spacingRight=4;overflow=hidden;rotatable=0;points=[[0,0.5],[1,0.5]];portConstraint=eastwest;" parent="EYh8BJ2n_GDFAuwJNTOS-13" vertex="1">
          <mxGeometry y="26" width="210" height="34" as="geometry" />
        </mxCell>
        <mxCell id="EYh8BJ2n_GDFAuwJNTOS-15" value="" style="line;strokeWidth=1;fillColor=none;align=left;verticalAlign=middle;spacingTop=-1;spacingLeft=3;spacingRight=3;rotatable=0;labelPosition=right;points=[];portConstraint=eastwest;strokeColor=inherit;" parent="EYh8BJ2n_GDFAuwJNTOS-13" vertex="1">
          <mxGeometry y="60" width="210" height="8" as="geometry" />
        </mxCell>
        <mxCell id="EYh8BJ2n_GDFAuwJNTOS-16" value="+ Chef (table : Table, ingredient : int)&#xa;+ run() : void" style="text;strokeColor=none;fillColor=none;align=left;verticalAlign=top;spacingLeft=4;spacingRight=4;overflow=hidden;rotatable=0;points=[[0,0.5],[1,0.5]];portConstraint=eastwest;" parent="EYh8BJ2n_GDFAuwJNTOS-13" vertex="1">
          <mxGeometry y="68" width="210" height="42" as="geometry" />
        </mxCell>
        <mxCell id="EYh8BJ2n_GDFAuwJNTOS-17" value="" style="endArrow=block;dashed=1;endFill=0;endSize=12;html=1;rounded=0;exitX=0.75;exitY=0;exitDx=0;exitDy=0;entryX=0.144;entryY=0.962;entryDx=0;entryDy=0;entryPerimeter=0;" parent="1" source="EYh8BJ2n_GDFAuwJNTOS-5" target="EYh8BJ2n_GDFAuwJNTOS-4" edge="1">
          <mxGeometry width="160" relative="1" as="geometry">
            <mxPoint x="315" y="660" as="sourcePoint" />
            <mxPoint x="475" y="660" as="targetPoint" />
          </mxGeometry>
        </mxCell>
        <mxCell id="EYh8BJ2n_GDFAuwJNTOS-18" value="" style="endArrow=block;dashed=1;endFill=0;endSize=12;html=1;rounded=0;exitX=0.25;exitY=0;exitDx=0;exitDy=0;" parent="1" source="EYh8BJ2n_GDFAuwJNTOS-13" edge="1">
          <mxGeometry width="160" relative="1" as="geometry">
            <mxPoint x="355" y="450" as="sourcePoint" />
            <mxPoint x="465" y="319" as="targetPoint" />
          </mxGeometry>
        </mxCell>
        <mxCell id="EYh8BJ2n_GDFAuwJNTOS-21" value="&lt;b&gt;&lt;font style=&quot;font-size: 40px;&quot;&gt;Assignment 1 UML Class Diagram&lt;/font&gt;&lt;/b&gt;" style="text;html=1;align=center;verticalAlign=middle;resizable=0;points=[];autosize=1;strokeColor=none;fillColor=none;" parent="1" vertex="1">
          <mxGeometry x="90" y="80" width="670" height="60" as="geometry" />
        </mxCell>
        <mxCell id="qTKGBtqsjHukCDs55GP_-1" value="Main    " style="swimlane;fontStyle=1;align=center;verticalAlign=top;childLayout=stackLayout;horizontal=1;startSize=26;horizontalStack=0;resizeParent=1;resizeParentMax=0;resizeLast=0;collapsible=1;marginBottom=0;" vertex="1" parent="1">
          <mxGeometry x="335" y="600" width="130" height="60" as="geometry" />
        </mxCell>
        <mxCell id="qTKGBtqsjHukCDs55GP_-3" value="" style="line;strokeWidth=1;fillColor=none;align=left;verticalAlign=middle;spacingTop=-1;spacingLeft=3;spacingRight=3;rotatable=0;labelPosition=right;points=[];portConstraint=eastwest;strokeColor=inherit;" vertex="1" parent="qTKGBtqsjHukCDs55GP_-1">
          <mxGeometry y="26" width="130" height="8" as="geometry" />
        </mxCell>
        <mxCell id="qTKGBtqsjHukCDs55GP_-4" value="+ main(args : String[])" style="text;strokeColor=none;fillColor=none;align=left;verticalAlign=top;spacingLeft=4;spacingRight=4;overflow=hidden;rotatable=0;points=[[0,0.5],[1,0.5]];portConstraint=eastwest;fontStyle=4" vertex="1" parent="qTKGBtqsjHukCDs55GP_-1">
          <mxGeometry y="34" width="130" height="26" as="geometry" />
        </mxCell>
        <mxCell id="qTKGBtqsjHukCDs55GP_-5" value="" style="endArrow=diamondThin;endFill=1;endSize=24;html=1;rounded=0;entryX=0.25;entryY=0;entryDx=0;entryDy=0;" edge="1" parent="1" target="EYh8BJ2n_GDFAuwJNTOS-9">
          <mxGeometry width="160" relative="1" as="geometry">
            <mxPoint x="325" y="540" as="sourcePoint" />
            <mxPoint x="500" y="640" as="targetPoint" />
          </mxGeometry>
        </mxCell>
        <mxCell id="qTKGBtqsjHukCDs55GP_-11" value="1" style="edgeLabel;html=1;align=center;verticalAlign=middle;resizable=0;points=[];" vertex="1" connectable="0" parent="qTKGBtqsjHukCDs55GP_-5">
          <mxGeometry x="0.6444" relative="1" as="geometry">
            <mxPoint x="10" y="2" as="offset" />
          </mxGeometry>
        </mxCell>
        <mxCell id="qTKGBtqsjHukCDs55GP_-12" value="1" style="edgeLabel;html=1;align=center;verticalAlign=middle;resizable=0;points=[];" vertex="1" connectable="0" parent="qTKGBtqsjHukCDs55GP_-5">
          <mxGeometry x="-0.8778" y="1" relative="1" as="geometry">
            <mxPoint x="4" y="-1" as="offset" />
          </mxGeometry>
        </mxCell>
        <mxCell id="qTKGBtqsjHukCDs55GP_-6" value="" style="endArrow=diamondThin;endFill=1;endSize=24;html=1;rounded=0;exitX=0.286;exitY=1.024;exitDx=0;exitDy=0;exitPerimeter=0;entryX=0.75;entryY=0;entryDx=0;entryDy=0;" edge="1" parent="1" source="EYh8BJ2n_GDFAuwJNTOS-16" target="EYh8BJ2n_GDFAuwJNTOS-9">
          <mxGeometry width="160" relative="1" as="geometry">
            <mxPoint x="330.03999999999996" y="551.008" as="sourcePoint" />
            <mxPoint x="335" y="730" as="targetPoint" />
          </mxGeometry>
        </mxCell>
        <mxCell id="qTKGBtqsjHukCDs55GP_-10" value="1" style="edgeLabel;html=1;align=center;verticalAlign=middle;resizable=0;points=[];" vertex="1" connectable="0" parent="qTKGBtqsjHukCDs55GP_-6">
          <mxGeometry x="0.6331" y="-1" relative="1" as="geometry">
            <mxPoint x="6" as="offset" />
          </mxGeometry>
        </mxCell>
        <mxCell id="qTKGBtqsjHukCDs55GP_-13" value="3" style="edgeLabel;html=1;align=center;verticalAlign=middle;resizable=0;points=[];" vertex="1" connectable="0" parent="qTKGBtqsjHukCDs55GP_-6">
          <mxGeometry x="-0.8107" y="1" relative="1" as="geometry">
            <mxPoint x="4" y="-7" as="offset" />
          </mxGeometry>
        </mxCell>
        <mxCell id="qTKGBtqsjHukCDs55GP_-7" value="" style="endArrow=none;html=1;rounded=0;exitX=0.25;exitY=0;exitDx=0;exitDy=0;" edge="1" parent="1" source="qTKGBtqsjHukCDs55GP_-1">
          <mxGeometry width="50" height="50" relative="1" as="geometry">
            <mxPoint x="400" y="670" as="sourcePoint" />
            <mxPoint x="368" y="540" as="targetPoint" />
          </mxGeometry>
        </mxCell>
        <mxCell id="qTKGBtqsjHukCDs55GP_-8" value="" style="endArrow=none;html=1;rounded=0;exitX=0.75;exitY=0;exitDx=0;exitDy=0;entryX=0.081;entryY=1.048;entryDx=0;entryDy=0;entryPerimeter=0;fontStyle=1" edge="1" parent="1" source="qTKGBtqsjHukCDs55GP_-1" target="EYh8BJ2n_GDFAuwJNTOS-16">
          <mxGeometry width="50" height="50" relative="1" as="geometry">
            <mxPoint x="377.5" y="610" as="sourcePoint" />
            <mxPoint x="378" y="550" as="targetPoint" />
          </mxGeometry>
        </mxCell>
        <mxCell id="qTKGBtqsjHukCDs55GP_-9" value="" style="endArrow=none;html=1;rounded=0;exitX=0.5;exitY=0;exitDx=0;exitDy=0;entryX=0.492;entryY=1.038;entryDx=0;entryDy=0;entryPerimeter=0;" edge="1" parent="1" source="EYh8BJ2n_GDFAuwJNTOS-9" target="qTKGBtqsjHukCDs55GP_-4">
          <mxGeometry width="50" height="50" relative="1" as="geometry">
            <mxPoint x="377.5" y="610" as="sourcePoint" />
            <mxPoint x="410" y="670" as="targetPoint" />
          </mxGeometry>
        </mxCell>
      </root>
    </mxGraphModel>
  </diagram>
</mxfile>
